<svg xmlns="http://www.w3.org/2000/svg" xmlns:xlink="http://www.w3.org/1999/xlink" width="56.062" height="56.031" viewBox="0 0 56.062 56.031">
  <metadata><?xpacket begin="﻿" id="W5M0MpCehiHzreSzNTczkc9d"?>
<x:xmpmeta xmlns:x="adobe:ns:meta/" x:xmptk="Adobe XMP Core 5.6-c138 79.159824, 2016/09/14-01:09:01        ">
   <rdf:RDF xmlns:rdf="http://www.w3.org/1999/02/22-rdf-syntax-ns#">
      <rdf:Description rdf:about=""/>
   </rdf:RDF>
</x:xmpmeta>
                                                                                                    
                                                                                                    
                                                                                                    
                                                                                                    
                                                                                                    
                                                                                                    
                                                                                                    
                                                                                                    
                                                                                                    
                                                                                                    
                                                                                                    
                                                                                                    
                                                                                                    
                                                                                                    
                                                                                                    
                                                                                                    
                                                                                                    
                                                                                                    
                                                                                                    
                                                                                                    
                           
<?xpacket end="w"?></metadata>
<defs>
    <style>
      .cls-1 {
        fill: #1b1b1b;
        fill-rule: evenodd;
        filter: url(#filter);
      }
    </style>
    <filter id="filter" x="702.813" y="250" width="56.062" height="56.031" filterUnits="userSpaceOnUse">
      <feFlood result="flood" flood-color="#ef9325"/>
      <feComposite result="composite" operator="in" in2="SourceGraphic"/>
      <feBlend result="blend" in2="SourceGraphic"/>
    </filter>
  </defs>
  <path id="Rocket" class="cls-1" d="M704.662,305.742l-1.717.038L702.915,304c0-8.764,1.766-10.6,5.515-12.468a15.608,15.608,0,0,0,2.824-1.62l2.128,2.712a19.363,19.363,0,0,1-3.393,2.031c-2.249,1.12-3.373,1.751-3.549,7.638,6.111-.221,6.8-1.74,7.9-4.02a17.7,17.7,0,0,1,1.691-2.951l2.592,2.35a22.418,22.418,0,0,0-1.232,2.385C715.658,303.653,713.927,305.742,704.662,305.742Zm36.73-31.35a7,7,0,1,1,7.01-7A7.012,7.012,0,0,1,741.392,274.392Zm0-10.492a3.494,3.494,0,1,0,3.5,3.494A3.5,3.5,0,0,0,741.392,263.9ZM726.18,306.038a1.788,1.788,0,0,1-.541-0.085,1.748,1.748,0,0,1-1.16-1.258l-2.127-8.981-3.95-4.373c-1.9-2.1-3.078-3.409-3.789-4.285l-10.428-2.38a1.746,1.746,0,0,1-.918-2.86l6.407-6.932a1.749,1.749,0,0,1,1.307-.587H720.7c0.606-1.085,1.319-2.506,2.065-3.992,1.931-3.849,4.12-8.483,6.321-11.048A21.188,21.188,0,0,1,738,252.87a51.262,51.262,0,0,1,19.19-2.8,1.747,1.747,0,0,1,1.617,1.633c0.029,0.459.653,11.329-2.282,19.217a18.81,18.81,0,0,1-5.94,8.621c-2.449,2.174-8.356,4.923-12.314,7.131-1.452.811-3,1.643-3.865,2.183v9a1.738,1.738,0,0,1-.612,1.324l-6.475,6.431A1.745,1.745,0,0,1,726.18,306.038Zm-9.375-21.688c0.372,0.426,5.228,5.8,8.442,9.358a1.738,1.738,0,0,1,.4.767l1.571,6.63,3.687-4.045v-9.12a1.741,1.741,0,0,1,.643-1.351,49.167,49.167,0,0,1,5.013-2.958c3.608-2.014,9.532-4.773,11.7-6.694a15.425,15.425,0,0,0,4.984-7.228c2.058-5.53,2.179-12.99,2.123-16.207a47.252,47.252,0,0,0-16.149,2.637,17.579,17.579,0,0,0-7.476,5.39c-1.923,2.239-4.1,6.852-5.851,10.339-1.034,2.059-1.926,3.837-2.7,5.087a1.751,1.751,0,0,1-1.489.832h-9.942l-3.927,4.144,8.006,1.828A1.746,1.746,0,0,1,716.805,284.35Z" transform="translate(-702.813 -250)"/>
</svg>
